<svg width="1200" height="630" xmlns="http://www.w3.org/2000/svg" viewBox="0 0 1200 630" role="img" aria-label="WhiteLabelCallTracking — White Label Call Tracking Software for Agencies 2026">
  <defs>
    <linearGradient id="bg" x1="0" y1="0" x2="1" y2="1"><stop offset="0" stop-color="#FFFFFF"/><stop offset="1" stop-color="#F3E8FF"/></linearGradient>
    <linearGradient id="mark" x1="0" y1="0" x2="1" y2="1"><stop offset="0" stop-color="#6B21A8"/><stop offset="1" stop-color="#581C87"/></linearGradient>
  </defs>
  <rect width="1200" height="630" fill="url(#bg)"/>
  <rect x="0" y="0" width="1200" height="8" fill="url(#mark)"/>
  <g transform="translate(120 130)">
    <text x="0" y="0" font-family="'Epilogue', Inter, sans-serif" font-size="22" fill="#6B21A8" font-weight="800" letter-spacing="4">WHITELABELCALLTRACKING · 2026</text>
    <text x="0" y="104" font-family="'Epilogue', Inter, sans-serif" font-size="80" font-weight="800" fill="#1F1430">White Label</text>
    <text x="0" y="194" font-family="'Epilogue', Inter, sans-serif" font-size="80" font-weight="800" fill="#1F1430">Call Tracking</text>
    <text x="0" y="268" font-family="Inter, sans-serif" font-size="30" fill="#6E6285" font-weight="500">Reseller-ready platforms ranked for agencies</text>
    <text x="0" y="346" font-family="Inter, sans-serif" font-size="20" fill="#581C87" font-weight="700">By Zoe Mensah · Updated May 2026</text>
  </g>
  <g transform="translate(930 232)">
    <rect x="0" y="0" width="150" height="150" rx="32" fill="url(#mark)"/>
    <path transform="translate(45 45) scale(2.6)" d="M6.62 10.79c1.44 2.83 3.76 5.14 6.59 6.59l2.2-2.2c.28-.28.67-.36 1.02-.25 1.12.37 2.33.57 3.57.57.55 0 1 .45 1 1V20c0 .55-.45 1-1 1-9.39 0-17-7.61-17-17 0-.55.45-1 1-1h3.5c.55 0 1 .45 1 1 0 1.25.2 2.45.57 3.57.11.35.03.74-.25 1.02l-2.2 2.2z" fill="#FFFFFF"/>
  </g>
</svg>
